<svg xmlns="http://www.w3.org/2000/svg" viewBox="0 0 113.49 103.44"><defs><style>.cls-1{fill:#6ab8e6;}.cls-2{fill:#4261ab;}.cls-3{fill:#fff;}</style></defs><title>Asset 3</title><g id="Layer_2" data-name="Layer 2"><g id="Layer_1-2" data-name="Layer 1"><rect class="cls-1" x="18.13" y="22.17" width="81.6" height="54.94" rx="9.12" ry="9.12"/><path class="cls-1" d="M110,103.44H8.48a3.56,3.56,0,0,1-3.54-3.55L16.57,82.74c1.7-2.22,2.76-3.55,4.71-3.55H96.92c2,0,3.51,1.22,4.94,3.55l11.63,17.15A3.56,3.56,0,0,1,110,103.44Z"/><rect class="cls-2" x="24.26" y="27.36" width="69.33" height="43.21" rx="6.99" ry="6.99"/><polygon class="cls-2" points="93.48 91.37 24.95 91.37 29.89 82.99 88.54 82.99 93.48 91.37"/><polygon class="cls-2" points="74.14 99.27 44.29 99.27 45.45 95.33 72.98 95.33 74.14 99.27"/><path class="cls-3" d="M79.21,91.37h-3.5V50.09a1.76,1.76,0,0,1,1.75-1.75H93.61v3.5H79.21Z"/><circle class="cls-2" cx="52.16" cy="4.65" r="4.65"/><circle class="cls-2" cx="4.65" cy="57.58" r="4.65"/><path class="cls-3" d="M67.79,83.23h-3.5V41.92H52.56a1.76,1.76,0,0,1-1.75-1.75V27.32h3.5v11.1H66a1.75,1.75,0,0,1,1.75,1.75Z"/><rect class="cls-2" x="50.53" y="5.81" width="3.5" height="16.34"/><path class="cls-3" d="M51.55,91.52h-3.5l.13-31.81H24.26V56.21H49.94A1.74,1.74,0,0,1,51.69,58Z"/><path class="cls-2" d="M5.74,55.83H18.11v3.5H4a1.75,1.75,0,0,1-1.75-1.75"/></g></g></svg>