<svg xmlns="http://www.w3.org/2000/svg" viewBox="0 0 317.08 107.6"><defs><style>.cls-1{font-size:16.67px;}.cls-1,.cls-8{fill:#4261ab;}.cls-1,.cls-11{font-family:Futura-Medium, Futura Medium;}.cls-2{letter-spacing:-0.04em;}.cls-3{letter-spacing:-0.01em;}.cls-4{letter-spacing:0em;}.cls-5{letter-spacing:-0.01em;}.cls-6{letter-spacing:0em;}.cls-7{fill:#6ab8e6;}.cls-9{fill:#fff;}.cls-10{fill:#336a96;}.cls-11{font-size:62.16px;}.cls-11,.cls-13{fill:#ef8133;}.cls-12{letter-spacing:-0.05em;}</style></defs><title>Asset 2</title><g id="Layer_2" data-name="Layer 2"><g id="Layer_1-2" data-name="Layer 1"><text class="cls-1" transform="translate(124.53 103.44)"><tspan class="cls-2">T</tspan><tspan class="cls-3" x="7.53" y="0">r</tspan><tspan x="12.9" y="0">aining &amp; </tspan><tspan class="cls-4" x="73.7" y="0">D</tspan><tspan x="84.87" y="0">e</tspan><tspan class="cls-5" x="93.22" y="0">v</tspan><tspan x="101.07" y="0">elopme</tspan><tspan class="cls-6" x="154.24" y="0">n</tspan><tspan x="163.42" y="0">t</tspan></text><rect class="cls-7" x="18.13" y="22.17" width="81.6" height="54.94" rx="9.12" ry="9.12"/><path class="cls-7" d="M110,103.44H8.48a3.56,3.56,0,0,1-3.54-3.55L16.57,82.74c1.7-2.22,2.76-3.55,4.71-3.55H96.92c2,0,3.51,1.22,4.94,3.55l11.63,17.15A3.56,3.56,0,0,1,110,103.44Z"/><rect class="cls-8" x="24.26" y="27.36" width="69.33" height="43.21" rx="6.99" ry="6.99"/><polygon class="cls-8" points="93.48 91.37 24.95 91.37 29.89 82.99 88.54 82.99 93.48 91.37"/><polygon class="cls-8" points="74.14 99.27 44.29 99.27 45.45 95.33 72.98 95.33 74.14 99.27"/><path class="cls-9" d="M79.21,91.37h-3.5V50.09a1.76,1.76,0,0,1,1.75-1.75H93.61v3.5H79.21Z"/><circle class="cls-8" cx="52.16" cy="4.65" r="4.65"/><circle class="cls-10" cx="312.43" cy="80.45" r="4.65"/><circle class="cls-8" cx="4.65" cy="57.58" r="4.65"/><path class="cls-9" d="M67.79,83.23h-3.5V41.92H52.56a1.76,1.76,0,0,1-1.75-1.75V27.32h3.5v11.1H66a1.75,1.75,0,0,1,1.75,1.75Z"/><rect class="cls-8" x="50.53" y="5.81" width="3.5" height="16.34"/><path class="cls-9" d="M51.55,91.52h-3.5l.13-31.81H24.26V56.21H49.94A1.74,1.74,0,0,1,51.69,58Z"/><path class="cls-8" d="M5.74,55.83H18.11v3.5H4a1.75,1.75,0,0,1-1.75-1.75"/><path class="cls-8" d="M314.38,81.75H111.51A1.76,1.76,0,0,1,109.76,80V51.84h-10v-3.5h11.78a1.75,1.75,0,0,1,1.75,1.75V78.24H314.38Z"/><text class="cls-11" transform="translate(118.34 68.91)">I<tspan class="cls-12" x="14.86" y="0">T</tspan><tspan x="42.58" y="0">-Labs</tspan></text><circle class="cls-13" cx="127.13" cy="18.01" r="7.6"/></g></g></svg>