<svg xmlns="http://www.w3.org/2000/svg" viewBox="0 0 486.45 361.62"><defs><style>.cls-1{fill:#6ab8e6;}</style></defs><title>Asset 2</title><g id="Layer_2" data-name="Layer 2"><g id="Capa_1" data-name="Capa 1"><path class="cls-1" d="M340.18,170.84a44.52,44.52,0,1,0,44.52,44.52A44.57,44.57,0,0,0,340.18,170.84Zm0,76.31A31.8,31.8,0,1,1,372,215.36,31.84,31.84,0,0,1,340.18,247.15Z"/><path class="cls-1" d="M429.21,221.72A31.8,31.8,0,1,0,461,253.51,31.84,31.84,0,0,0,429.21,221.72Zm0,50.87a19.08,19.08,0,1,1,19.08-19.08A19.1,19.1,0,0,1,429.21,272.59Z"/><path class="cls-1" d="M252.06,221.72a31.8,31.8,0,1,0,31.79,31.79A31.83,31.83,0,0,0,252.06,221.72Zm0,50.87a19.08,19.08,0,1,1,19.07-19.08A19.1,19.1,0,0,1,252.06,272.59Z"/><path class="cls-1" d="M340.18,272.59a82.77,82.77,0,0,0-82.67,82.67,6.36,6.36,0,0,0,12.72,0,70,70,0,0,1,139.91,0,6.36,6.36,0,0,0,12.72,0A82.77,82.77,0,0,0,340.18,272.59Z"/><path class="cls-1" d="M429.21,298a57.2,57.2,0,0,0-29.64,8.27,6.36,6.36,0,1,0,6.6,10.87,44.53,44.53,0,0,1,67.56,38.09,6.36,6.36,0,0,0,12.72,0A57.31,57.31,0,0,0,429.21,298Z"/><path class="cls-1" d="M280.79,306.28a57.26,57.26,0,0,0-86.87,49,6.36,6.36,0,1,0,12.72,0,44.53,44.53,0,0,1,67.55-38.1,6.36,6.36,0,0,0,6.6-10.88Z"/><rect class="cls-1" x="208.59" y="129.6" width="48.78" height="12.06" rx="4.72" ry="4.72"/><rect class="cls-1" x="208.59" y="129.6" width="48.78" height="12.06" rx="4.72" ry="4.72" transform="translate(97.35 368.61) rotate(-90)"/><path class="cls-1" d="M82.67,0a44.52,44.52,0,1,0,44.52,44.52A44.57,44.57,0,0,0,82.67,0Zm0,76.31a31.8,31.8,0,1,1,31.8-31.79A31.84,31.84,0,0,1,82.67,76.31Z"/><path class="cls-1" d="M82.67,101.75A82.77,82.77,0,0,0,0,184.42a6.36,6.36,0,1,0,12.72,0,70,70,0,0,1,139.9,0,6.36,6.36,0,0,0,12.72,0A82.76,82.76,0,0,0,82.67,101.75Z"/></g></g></svg>