<svg xmlns="http://www.w3.org/2000/svg" viewBox="0 0 490.67 385.43"><defs><style>.cls-1{fill:#ef8133;}</style></defs><title>Asset 1</title><g id="Layer_2" data-name="Layer 2"><g id="Capa_1" data-name="Capa 1"><path class="cls-1" d="M231.59,83.35a70.49,70.49,0,1,0,70.49,70.49A70.57,70.57,0,0,0,231.59,83.35Zm0,120.83a50.35,50.35,0,1,1,50.35-50.34A50.41,50.41,0,0,1,231.59,204.18Z"/><path class="cls-1" d="M372.56,163.91a50.35,50.35,0,1,0,50.35,50.34A50.41,50.41,0,0,0,372.56,163.91Zm0,80.55a30.21,30.21,0,1,1,30.21-30.21A30.24,30.24,0,0,1,372.56,244.46Z"/><path class="cls-1" d="M92.05,163.91a50.35,50.35,0,1,0,50.35,50.34A50.39,50.39,0,0,0,92.05,163.91Zm0,80.55a30.21,30.21,0,1,1,30.21-30.21A30.24,30.24,0,0,1,92.05,244.46Z"/><path class="cls-1" d="M231.59,244.46c-72.17,0-130.9,58.73-130.9,130.9a10.07,10.07,0,0,0,20.14,0,110.77,110.77,0,0,1,221.53,0,10.07,10.07,0,0,0,20.14,0C362.5,303.19,303.77,244.46,231.59,244.46Z"/><path class="cls-1" d="M372.56,284.74a90.63,90.63,0,0,0-46.94,13.09,10.07,10.07,0,0,0,10.45,17.22,70.5,70.5,0,0,1,107,60.31,10.07,10.07,0,0,0,20.14,0A90.74,90.74,0,0,0,372.56,284.74Z"/><path class="cls-1" d="M137.55,297.81A90.66,90.66,0,0,0,0,375.36a10.07,10.07,0,0,0,20.14,0A70.51,70.51,0,0,1,127.1,315a10.07,10.07,0,0,0,10.45-17.22Z"/><rect class="cls-1" x="422.91" y="25.5" width="67.76" height="16.75" rx="6.4" ry="6.4"/><rect class="cls-1" x="422.91" y="25.5" width="67.76" height="16.75" rx="6.4" ry="6.4" transform="translate(422.91 490.67) rotate(-90)"/></g></g></svg>